<?xml version="1.0" standalone="no"?>
<!DOCTYPE svg PUBLIC "-//W3C//DTD SVG 20010904//EN"
 "http://www.w3.org/TR/2001/REC-SVG-20010904/DTD/svg10.dtd">
<svg version="1.0" xmlns="http://www.w3.org/2000/svg"
     width="16" height="16" viewBox="0 0 225.000000 225.000000"
 preserveAspectRatio="xMidYMid meet">

<g transform="translate(0.000000,225.000000) scale(0.100000,-0.100000)"
fill="#000000" stroke="none">
<path d="M969 2240 c-384 -37 -699 -200 -806 -417 -39 -80 -44 -192 -13 -275
84 -224 374 -392 768 -443 509 -67 1031 118 1171 415 22 47 26 69 26 150 0 84
-3 102 -29 155 -35 72 -154 194 -240 244 -66 40 -214 100 -301 124 -159 43
-407 64 -576 47z m314 -349 c125 -33 201 -81 237 -152 62 -120 -36 -242 -235
-294 -77 -20 -243 -20 -320 0 -221 57 -317 207 -211 331 96 112 335 164 529
115z"/>
<path d="M245 1063 c-152 -17 -260 -106 -235 -193 19 -67 73 -100 256 -155
101 -31 352 -87 434 -97 19 -2 -42 -42 -260 -168 -157 -90 -302 -181 -323
-201 -31 -31 -37 -43 -37 -79 0 -37 6 -48 43 -85 57 -57 130 -80 252 -79 65 1
104 7 142 21 29 12 168 88 310 170 142 83 267 155 279 161 18 10 59 -11 304
-153 156 -91 307 -172 334 -182 69 -23 203 -23 279 0 39 12 71 31 102 61 40
37 45 48 45 85 0 37 -6 49 -37 80 -21 20 -166 111 -323 201 -218 126 -279 166
-260 168 171 21 518 113 603 160 139 75 116 199 -50 262 -93 35 -210 31 -348
-13 -217 -70 -393 -97 -627 -97 -234 0 -408 26 -633 94 -108 33 -190 46 -250
39z"/>
</g>
</svg>
